<?xml version="1.0" encoding="UTF-8"?>
<!DOCTYPE svg PUBLIC "-//W3C//DTD SVG 1.1//EN" "http://www.w3.org/Graphics/SVG/1.1/DTD/svg11.dtd">
<!-- Creator: CorelDRAW -->
<svg xmlns="http://www.w3.org/2000/svg" xml:space="preserve" width="47.6375mm" height="9.0349mm" version="1.1" shape-rendering="geometricPrecision" text-rendering="geometricPrecision" image-rendering="optimizeQuality" fill-rule="evenodd" clip-rule="evenodd"
viewBox="0 0 4755.51 901.93"
 xmlns:xlink="http://www.w3.org/1999/xlink"
 xmlns:xodm="http://www.corel.com/coreldraw/odm/2003">
 <defs>
    <radialGradient id="id0" gradientUnits="userSpaceOnUse" gradientTransform="matrix(0.999991 -0 -0 0.990262 0 6)" cx="4135.33" cy="597.08" r="449.53" fx="4135.33" fy="597.08">
     <stop offset="0" stop-opacity="1" stop-color="#52C0AE"/>
     <stop offset="0.831373" stop-opacity="1" stop-color="#6BC27D"/>
     <stop offset="1" stop-opacity="1" stop-color="#84C44C"/>
    </radialGradient>
    <radialGradient id="id1" gradientUnits="userSpaceOnUse" gradientTransform="matrix(-0.999814 -0 -0 0.990262 8512 6)" cx="4256.37" cy="597.08" r="449.53" fx="4256.37" fy="597.08">
     <stop offset="0" stop-opacity="1" stop-color="#52C0AE"/>
     <stop offset="0.831373" stop-opacity="1" stop-color="#6BC27D"/>
     <stop offset="1" stop-opacity="1" stop-color="#84C44C"/>
    </radialGradient>
 </defs>
 <g id="Capa_x0020_1">
  <metadata id="CorelCorpID_0Corel-Layer"/>
  <g id="_2241255823216">
   <path fill="black" fill-rule="nonzero" d="M-0 889.71l117.27 0 0 -647.41 2.45 0 97.72 647.41 112.39 0 97.72 -647.41 2.44 0 0 647.41 127.04 0 0 -855.07 -191.78 0 -85.5 611.98 -2.45 0 -85.51 -611.98 -191.78 0 0 855.07zm851.41 12.22c131.92,0 204,-78.18 204,-215l0 -449.52c0,-136.81 -72.08,-214.99 -204,-214.99 -131.92,0 -204,78.17 -204,214.99l0 449.52c0,136.81 72.08,215 204,215zm0 -122.16c-42.76,0 -69.63,-23.21 -69.63,-84.28l0 -466.62c0,-61.08 26.87,-84.29 69.63,-84.29 42.76,0 69.63,23.21 69.63,84.29l0 466.62c0,61.07 -26.87,84.28 -69.63,84.28zm294.39 109.94l134.37 0 0 -366.46 46.42 0c61.07,0 84.28,25.65 84.28,105.05l0 156.36c0,69.62 4.89,83.06 12.22,105.05l136.81 0c-13.44,-31.76 -14.66,-62.3 -14.66,-103.83l0 -150.25c0,-96.5 -21.98,-160.02 -89.17,-180.79l0 -2.45c59.86,-24.43 87.95,-80.62 87.95,-168.57l0 -52.53c0,-131.92 -59.86,-196.66 -199.12,-196.66l-199.11 0 0 855.07zm134.37 -488.61l0 -244.31 61.07 0c47.65,0 68.41,26.87 68.41,87.95l0 65.97c0,68.4 -30.54,90.39 -80.62,90.39l-48.87 0zm552.13 500.83c131.92,0 204,-78.18 204,-215l0 -449.52c0,-136.81 -72.08,-214.99 -204,-214.99 -131.92,0 -204,78.17 -204,214.99l0 449.52c0,136.81 72.08,215 204,215zm0 -122.16c-42.76,0 -69.63,-23.21 -69.63,-84.28l0 -466.62c0,-61.08 26.87,-84.29 69.63,-84.29 42.76,0 69.63,23.21 69.63,84.29l0 466.62c0,61.07 -26.87,84.28 -69.63,84.28zm483.73 122.16c129.48,0 197.89,-78.18 197.89,-210.11l0 -120.93 -127.04 0 0 130.7c0,56.19 -26.87,78.17 -67.18,78.17 -40.31,0 -67.18,-21.98 -67.18,-78.17l0 -477.62c0,-56.19 26.87,-79.4 67.18,-79.4 40.31,0 67.18,23.21 67.18,79.4l0 98.95 127.04 0 0 -90.39c0,-131.93 -68.41,-210.11 -197.89,-210.11 -129.49,0 -197.9,78.17 -197.9,210.11l0 459.29c0,131.92 68.41,210.11 197.9,210.11zm278.51 -12.22l134.37 0 0 -384.78 144.14 0 0 384.78 134.37 0 0 -855.07 -134.37 0 0 348.14 -144.14 0 0 -348.14 -134.37 0 0 855.07zm707.27 12.22c131.92,0 204,-78.18 204,-215l0 -449.52c0,-136.81 -72.08,-214.99 -204,-214.99 -131.92,0 -204,78.17 -204,214.99l0 449.52c0,136.81 72.08,215 204,215zm0 -122.16c-42.76,0 -69.63,-23.21 -69.63,-84.28l0 -466.62c0,-61.08 26.87,-84.29 69.63,-84.29 42.76,0 69.63,23.21 69.63,84.29l0 466.62c0,61.07 -26.87,84.28 -69.63,84.28z"/>
   <path fill="black" d="M4347.66 734.04l-308.64 0c0,0 -54.32,-19.33 -13.58,-63.19 -41.26,-18.28 -53.8,-85.12 -32.38,-130.03 21.41,-44.91 27.68,-44.39 27.68,-44.39 0,0 19.85,-123.77 175.99,-123.77 67.89,0 81.99,16.71 81.99,16.71 0,0 51.7,-13.06 51.7,-97.13 0,-84.08 -78.33,-71.03 -110.19,-35.51 -31.85,35.51 -85.12,79.37 -137.34,75.72 -52.22,-3.65 -55.35,-29.77 -47,-48.57 8.36,-18.8 47.52,-15.14 70.5,-7.84 22.98,7.32 53.27,-9.92 80.42,-38.64 27.16,-28.72 103.4,-100.79 161.37,-29.77 57.97,71.03 37.59,132.65 19.85,163.46 -17.76,30.82 -50.13,55.35 -50.13,55.35l6.79 9.4c0,0 13.38,-4.46 20.71,-3.06 7.34,1.4 4.19,41.57 4.19,41.57 0,0 34.23,24.45 54.84,73 20.61,48.56 -8.38,106.55 -19.91,119.12 2.8,15.36 10.48,49.94 -36.86,67.56zm-145.32 -72.36l0 7.47c0,0 -1.38,10.6 -7.86,6.68 -3.53,2.16 -10.01,0 -10.01,-7.47 0,-7.46 0,-7.46 0,-7.46 0,0 -12.57,-1.38 -12.57,-8.45 0,-7.07 7.66,-9.62 23.37,-9.62 15.7,0 20.22,5.11 20.22,9.23 0,4.12 -5.11,9.22 -13.16,9.61zm-75.96 47.07c0,0 43.31,21.66 126.46,0.35 -47.51,17.82 -82.45,19.57 -126.46,-0.35zm158.6 -12.58c0,0 27.95,-20.6 40.18,-39.47 12.23,-18.87 20.61,-49.95 17.47,-69.52 -3.14,-19.57 -9.08,-28.3 -9.78,-34.59 -0.7,-6.28 0.35,-34.93 9.08,-50.65 -4.19,25.16 -6.99,39.13 -1.4,54.85 5.59,15.72 12.57,56.95 -1.05,85.94 -13.63,29 -44.37,47.87 -54.51,53.45zm-220.44 -147.07c0,0 -33.88,-48.91 -12.93,-105.84 14.33,-7.34 34.59,0.7 48.21,17.46 13.63,16.77 24.11,22.01 32.14,22.36 8.04,0.35 29.34,-10.83 64.97,-10.83 35.63,0 50.3,17.47 63.58,7.34 13.27,-10.13 43.31,-31.78 43.31,-31.78 0,0 -17.82,7.68 -31.1,15.71 -13.27,8.04 -16.06,16.07 -30.74,11.53 -14.67,-4.54 -59.38,-13.98 -98.51,1.4 -19.56,6.99 -25.85,-3.49 -38.42,-17.12 -12.57,-13.62 -30.3,-30.29 -54.82,-20.41 -8.36,18.13 -14.23,40.64 -7.8,67.28 6.44,26.64 15.85,44.1 15.85,44.1 0,0 -23.3,56.59 0.81,96.77 22.09,36.56 40.98,47.81 40.98,47.81 0,0 -34.63,-33.99 -42.82,-69.04 -4.44,-17.3 -5.14,-48.61 7.27,-76.74zm39.91 162.7c0,0 -6.59,10.99 -21.77,8.6 2.6,-10.59 1,-19.58 -2.2,-23.57 -2.2,7.79 -2.8,22.97 -2.8,22.97 0,0 -12.99,3.79 -23.97,2.2 -11.99,-4.79 -16.58,-9.39 -16.58,-9.39 0,0 5.19,-15.37 4.19,-21.97 -4.19,4 -8.19,14.58 -8.59,20.77 -5.6,0.8 -15.38,-5.79 -14.39,-28.96 -6.19,11.99 -4.19,31.76 14.98,34.36 9.38,12.58 31.76,14.97 45.54,7.79 10.18,3.19 27.36,-1 25.57,-12.79zm185.82 0c0,0 6.6,10.99 21.77,8.6 -2.6,-10.59 -1,-19.58 2.2,-23.57 2.21,7.79 2.81,22.97 2.81,22.97 0,0 12.98,3.79 23.97,2.2 11.98,-4.79 16.57,-9.39 16.57,-9.39 0,0 -5.19,-15.37 -4.19,-21.97 4.19,4 8.2,14.58 8.6,20.77 5.59,0.8 15.37,-5.79 14.38,-28.96 6.2,11.99 4.19,31.76 -14.97,34.36 -9.39,12.58 -31.76,14.97 -45.54,7.79 -10.19,3.19 -27.37,-1 -25.58,-12.79z"/>
   <path fill="url(#id0)" d="M4163.66 608.47c0,0 -1.71,-26.31 -19.05,-36.33 -17.33,-10 -34.56,6.09 -36.92,19.25 -2.36,13.16 0.4,30.04 20.04,33.38 19.63,3.33 35.93,-16.3 35.93,-16.3z"/>
   <circle fill="black" cx="4134.3" cy="596.19" r="24.25"/>
   <path fill="#E6E7E8" d="M4144.28 579.8c-3.9,0 -7.07,3.16 -7.07,7.07 0,3.9 3.16,7.07 7.07,7.07 3.9,0 7.07,-3.16 7.07,-7.07 0,-0.71 -0.1,-1.4 -0.3,-2.05 0.96,-0.46 1.62,-1.44 1.62,-2.57 0,-1.58 -1.28,-2.86 -2.86,-2.86 -0.94,0 -1.79,0.47 -2.3,1.18 -0.97,-0.5 -2.07,-0.78 -3.23,-0.78z"/>
   <path fill="url(#id1)" d="M4228.03 608.47c0,0 1.72,-26.31 19.05,-36.33 17.34,-10 34.56,6.09 36.92,19.25 2.36,13.16 -0.39,30.04 -20.03,33.38 -19.64,3.33 -35.94,-16.3 -35.94,-16.3z"/>
   <circle fill="black" cx="4258.64" cy="596.19" r="24.25"/>
   <path fill="#E6E7E8" d="M4268.72 579.8c-3.9,0 -7.07,3.16 -7.07,7.07 0,3.9 3.16,7.07 7.07,7.07 3.9,0 7.07,-3.16 7.07,-7.07 0,-0.71 -0.11,-1.4 -0.31,-2.05 0.96,-0.46 1.62,-1.44 1.62,-2.57 0,-1.58 -1.28,-2.86 -2.85,-2.86 -0.95,0 -1.79,0.47 -2.31,1.18 -0.97,-0.5 -2.07,-0.78 -3.22,-0.78z"/>
   <path fill="#00AFEF" fill-rule="nonzero" d="M3774.34 447.65c22.1,13.68 39.27,29.1 51.68,45.96 12.4,16.85 21.15,38.48 26.07,64.72 4.93,26.24 7.48,59.96 7.48,100.99 0,30.69 0.64,53.27 2.07,67.9 1.44,14.62 4.29,25.76 8.43,33.39 4.14,7.64 9.22,12.56 15.11,14.94 5.88,2.23 16.06,4.45 30.37,6.68 11.77,1.6 21.47,7.32 29.27,17.18 7.79,10.01 11.6,23.06 11.6,39.27 0,37.53 -22.74,56.3 -68.37,56.3 -28.31,0 -53.6,-5.89 -75.7,-17.66 -22.26,-11.92 -39.44,-28.62 -51.52,-50.09 -12.09,-21.62 -18.29,-46.43 -18.61,-74.42 -0.96,-47.07 -1.91,-85.07 -2.87,-113.54 -0.79,-28.62 -2.23,-47.07 -4.13,-55.49 -4.61,-20.83 -11.61,-36.58 -20.67,-47.07 -9.22,-10.5 -21.15,-20.35 -35.94,-29.58 -14.79,-9.22 -25.29,-17.34 -31.49,-24.65 -6.2,-7.32 -9.22,-18.93 -9.22,-34.83 0,-22.9 8.9,-40.07 27.03,-51.68 22.26,-14 38.16,-25.77 47.71,-35.63 9.54,-9.69 16.22,-22.26 20.04,-37.68 3.81,-15.42 6.2,-32.12 6.68,-50.41 0.64,-18.13 1.59,-61.85 2.87,-131.03 0.95,-42.94 14.47,-77.13 40.71,-102.72 26.23,-25.61 61.22,-38.49 105.12,-38.49 45.63,0 68.37,18.45 68.37,55.5 0,16.7 -3.81,29.9 -11.29,39.6 -7.63,9.53 -17.49,15.1 -29.58,16.69 -18.13,2.55 -30.69,6.2 -37.84,11.13 -7.16,5.09 -11.77,14.63 -14,28.94 -2.07,14.32 -3.49,41.99 -4.13,83.02 -0.64,39.91 -3.02,72.83 -7.16,98.43 -4.29,25.61 -12.4,47.55 -24.81,65.53 -12.24,17.97 -30.06,34.34 -53.27,48.82z"/>
   <path fill="#00AFEF" fill-rule="nonzero" d="M4619.07 447.65c-22.1,13.68 -39.27,29.1 -51.68,45.96 -12.4,16.85 -21.15,38.48 -26.07,64.72 -4.93,26.24 -7.48,59.96 -7.48,100.99 0,30.69 -0.64,53.27 -2.07,67.9 -1.44,14.62 -4.29,25.76 -8.43,33.39 -4.14,7.64 -9.22,12.56 -15.11,14.94 -5.88,2.23 -16.06,4.45 -30.37,6.68 -11.77,1.6 -21.47,7.32 -29.27,17.18 -7.79,10.01 -11.6,23.06 -11.6,39.27 0,37.53 22.74,56.3 68.37,56.3 28.31,0 53.6,-5.89 75.7,-17.66 22.26,-11.92 39.44,-28.62 51.52,-50.09 12.09,-21.62 18.29,-46.43 18.61,-74.42 0.96,-47.07 1.91,-85.07 2.87,-113.54 0.79,-28.62 2.23,-47.07 4.13,-55.49 4.61,-20.83 11.61,-36.58 20.67,-47.07 9.22,-10.5 21.15,-20.35 35.94,-29.58 14.79,-9.22 25.29,-17.34 31.49,-24.65 6.2,-7.32 9.22,-18.93 9.22,-34.83 0,-22.9 -8.9,-40.07 -27.03,-51.68 -22.26,-14 -38.16,-25.77 -47.71,-35.63 -9.54,-9.69 -16.22,-22.26 -20.04,-37.68 -3.81,-15.42 -6.2,-32.12 -6.68,-50.41 -0.64,-18.13 -1.59,-61.85 -2.87,-131.03 -0.95,-42.94 -14.47,-77.13 -40.71,-102.72 -26.23,-25.61 -61.22,-38.49 -105.12,-38.49 -45.63,0 -68.37,18.45 -68.37,55.5 0,16.7 3.81,29.9 11.29,39.6 7.63,9.53 17.49,15.1 29.58,16.69 18.13,2.55 30.69,6.2 37.84,11.13 7.16,5.09 11.77,14.63 14,28.94 2.07,14.32 3.49,41.99 4.13,83.02 0.64,39.91 3.02,72.83 7.16,98.43 4.29,25.61 12.4,47.55 24.81,65.53 12.24,17.97 30.06,34.34 53.27,48.82z"/>
  </g>
 </g>
</svg>
