<?xml version="1.0" encoding="UTF-8"?>
<!DOCTYPE svg PUBLIC "-//W3C//DTD SVG 1.1//EN" "http://www.w3.org/Graphics/SVG/1.1/DTD/svg11.dtd">
<!-- Creator: CorelDRAW -->
<svg xmlns="http://www.w3.org/2000/svg" xml:space="preserve" width="4.233mm" height="4.233mm" version="1.1" style="shape-rendering:geometricPrecision; text-rendering:geometricPrecision; image-rendering:optimizeQuality; fill-rule:evenodd; clip-rule:evenodd"
viewBox="0 0 415.2 415.2"
 xmlns:xlink="http://www.w3.org/1999/xlink"
 xmlns:xodm="http://www.corel.com/coreldraw/odm/2003">
 <defs>
  <style type="text/css">
   <![CDATA[
    .fil0 {fill:#FEFEFE;fill-rule:nonzero}
   ]]>
  </style>
 </defs>
 <g id="Capa_x0020_1">
  <metadata id="CorelCorpID_0Corel-Layer"/>
  <g id="_2519419664304">
   <g id="XMLID_468_">
    <path id="XMLID_469_" class="fil0" d="M307.23 238.57c-0.8,-0.38 -31.07,-15.29 -36.46,-17.22 -2.2,-0.79 -4.54,-1.56 -7.05,-1.56 -4.08,0 -7.51,2.04 -10.19,6.04 -3.02,4.49 -12.17,15.19 -15.01,18.38 -0.36,0.42 -0.87,0.93 -1.18,0.93 -0.26,0 -4.95,-1.93 -6.37,-2.55 -32.48,-14.1 -57.13,-48.02 -60.5,-53.74 -0.48,-0.82 -0.5,-1.2 -0.51,-1.2 0.12,-0.43 1.22,-1.53 1.78,-2.09 1.65,-1.64 3.43,-3.79 5.16,-5.87 0.82,-0.98 1.64,-1.97 2.44,-2.9 2.51,-2.91 3.63,-5.18 4.92,-7.8l0.68 -1.36c3.16,-6.28 0.46,-11.58 -0.41,-13.29 -0.72,-1.43 -13.5,-32.28 -14.85,-35.52 -3.28,-7.82 -7.59,-11.47 -13.59,-11.47 -0.55,0 0,0 -2.33,0.1 -2.83,0.13 -18.32,2.16 -25.17,6.47 -7.26,4.58 -19.54,19.17 -19.54,44.83 0,23.09 14.65,44.89 20.94,53.18 0.16,0.22 0.45,0.64 0.86,1.25 24.1,35.18 54.13,61.26 84.58,73.43 29.31,11.71 43.2,13.07 51.08,13.07 0,0 0,0 0,0 3.32,0 5.97,-0.26 8.32,-0.49l1.48 -0.15c10.13,-0.89 32.38,-12.43 37.44,-26.49 3.99,-11.08 5.04,-23.19 2.39,-27.58 -1.82,-2.98 -4.95,-4.49 -8.92,-6.4z"/>
    <path id="XMLID_470_" class="fil0" d="M211.29 0c-112.46,0 -203.93,90.8 -203.93,202.4 0,36.1 9.65,71.43 27.95,102.35l-35.03 103.32c-0.65,1.92 -0.17,4.05 1.26,5.5 1.03,1.05 2.42,1.62 3.85,1.62 0.54,0 1.09,-0.08 1.63,-0.26l107.74 -34.23c29.48,15.75 62.8,24.06 96.53,24.06 112.44,0.01 203.91,-90.78 203.91,-202.37 0,-111.6 -91.48,-202.4 -203.91,-202.4zm0 362.61c-31.73,0 -62.47,-9.16 -88.89,-26.49 -0.89,-0.59 -1.92,-0.88 -2.96,-0.88 -0.55,0 -1.1,0.08 -1.63,0.25l-53.98 17.16 17.43 -51.4c0.56,-1.66 0.27,-3.49 -0.76,-4.91 -20.12,-27.49 -30.76,-59.97 -30.76,-93.93 0,-88.36 72.47,-160.24 161.54,-160.24 89.05,0 161.51,71.89 161.51,160.24 0,88.35 -72.46,160.21 -161.51,160.21z"/>
   </g>
  </g>
 </g>
</svg>
